<?xml version="1.0" encoding="UTF-8"?>
<svg id="Layer_1" xmlns="http://www.w3.org/2000/svg" version="1.1" viewBox="0 0 256 256">
  <!-- Generator: Adobe Illustrator 29.4.0, SVG Export Plug-In . SVG Version: 2.1.0 Build 152)  -->
  <defs>
    <style>
      .st0 {
        fill: #bb8a5f;
      }

      .st1 {
        fill: #573113;
      }

      .st2 {
        fill: #7f5023;
      }
    </style>
  </defs>
  <path class="st1" d="M225.22,116.49c-.55-.2-1.11-.42-1.68-.61-2.67-.97-5.56-1.98-8.67-2.99-5.66-1.84-12-3.7-18.97-5.43-8.55-2.14-18.06-4.08-28.42-5.54-11.78-1.7-24.65-2.77-38.47-2.83-43.78-.2-78.3,9.8-98.85,17.41-1.37-4.34-3.49-13.21-1.11-24.04.14-.55.26-1.11.4-1.66,2.53-9.74,8.73-18.26,17.17-24.38,1.25-.89,2.55-1.82,3.98-2.73,7.33-4.79,14.44-7.98,34.69-14.91,7.68-2.61,17.41-5.82,28.77-9.33,2.2-7.58,5.31-13.37,7.76-17.25,2.65-4.16,7.11-11.03,15.68-16.99,2.02-1.41,3.92-2.51,5.54-3.37,3.11-1.66,6.99-1.72,9.98.08.75.46,1.45.99,2.04,1.62,1.72,1.8,2.61,4.14,2.59,6.48-.02,1.62-.89,3.11-2.32,4.04-3.33,2.12-7.03,4.83-10.81,8.28-5.39,4.89-9.27,9.78-12.02,13.8,10.38,3.11,21.27,6.69,32.51,10.87,13.21,4.89,25.46,10.02,36.77,15.19,7.7,3.52,14.42,8.83,19.03,15.64,1.64,2.44,3.17,5.25,4.4,8.42,5.58,14.4,1.31,26.81,0,30.24Z"/>
  <path class="st2" d="M214.35,136.88c0,3.19.06,6.42.08,9.66.04,2.89.04,5.8,0,8.69-.08,6.38-.44,12.71-1.5,18.85-3.92-12.06-15.25-20.77-28.61-20.77-16.61,0-30.08,13.47-30.08,30.08,0,8.38,3.43,15.96,8.97,21.43l-9.88,7.88c-1.13.89-2.3,1.82-3.45,2.71-16.3,12.75-33.21,25.01-38.87,29.11-.1.1-.18.16-.3.22-15.9-12.1-31.78-24.22-47.68-36.36-13.92-10.46-22.04-27.05-21.68-43.8.02-9.68,0-31.48,0-37.86,31.23-14.55,79.25-18.42,122.91-12.85,4.44.55,8.83,1.23,13.15,1.98,2.69.46,5.37.97,8,1.52,10.3,2.12,20.14,4.81,29.17,8.06l.08.14c-.22,3.66-.3,7.47-.3,11.31Z"/>
  <g>
    <path class="st0" d="M214.57,125.44l.08.14c-.22,3.66-.3,7.47-.3,11.31-5.31,5.07-12.53,8.2-20.47,8.2-16.38,0-29.66-13.29-29.66-29.66,0-.51.02-1.03.04-1.54,4.44.55,8.83,1.23,13.15,1.98,2.69.46,5.37.97,8,1.52,10.3,2.12,20.14,4.81,29.17,8.06Z"/>
    <path class="st0" d="M223.56,115.42c0,.16,0,.3-.02.46-2.67-.97-5.56-1.98-8.67-2.99-5.66-1.84-12-3.7-18.97-5.43-8.55-2.14-18.06-4.08-28.42-5.54,4.89-9.6,14.87-16.18,26.4-16.18,16.4,0,29.68,13.29,29.68,29.68Z"/>
    <path class="st0" d="M212.93,174.09c-.18,1.05-.38,2.1-.59,3.13-1.35,6.14-3.49,12-6.93,17.37-1.01,1.6-2.14,3.15-3.41,4.63-1.31,1.56-2.75,3.05-4.36,4.49-3.25,2.99-7.03,6.26-11.11,9.66-.24.2-.48.4-.71.59h-.02c-3.27,2.69-6.73,5.47-10.22,8.24-.71.57-1.43,1.13-2.14,1.68-5.33,4.16-10.71,8.28-15.74,12.08-.63.46-1.25.95-1.86,1.41-1.35,1.01-2.67,1.98-3.96,2.93-.48.38-.93.71-1.41,1.05-2.16,1.62-4.2,3.13-6.1,4.51-.59.44-1.17.85-1.72,1.27-2.51,1.84-4.71,3.43-6.4,4.67-.38.26-.71.51-1.05.73-.32.26-.63.48-.91.67-2.5,2.02-5.82,2.69-8.89,1.86-.57-.16-1.13-.38-1.68-.63-.53-.26-1.07-.55-1.58-.95-.26-.2-.5-.4-.75-.61-3.54-2.69-7.11-5.43-10.67-8.14.12-.06.2-.12.3-.22,5.66-4.1,22.57-16.36,38.87-29.11,1.15-.89,2.32-1.82,3.45-2.71l9.88-7.88c-5.54-5.47-8.97-13.05-8.97-21.43,0-16.61,13.47-30.08,30.08-30.08,13.37,0,24.69,8.71,28.61,20.77Z"/>
  </g>
</svg>