<?xml version="1.0" encoding="UTF-8"?>
<svg id="Layer_1" xmlns="http://www.w3.org/2000/svg" version="1.1" viewBox="0 0 607.68 190.29">
  <!-- Generator: Adobe Illustrator 29.4.0, SVG Export Plug-In . SVG Version: 2.1.0 Build 152)  -->
  <path d="M252.33,107.5c0,10.7-1.84,20.51-5.52,29.43-3.68,8.92-8.82,16.58-15.39,23-6.58,6.41-14.43,11.38-23.55,14.91-9.12,3.52-19.12,5.29-30,5.29-15.88,0-28.02-3.7-36.44-11.08-8.42-7.39-12.63-17.97-12.63-31.73,0-16.73,6.66-35.25,20-55.55l3.16,1.78c-7.37,14.44-11.05,26.12-11.05,35.04,0,21.58,15.39,32.36,46.18,32.36,15.44,0,28.59-2.97,39.47-8.92,2.72-1.53,5.11-3.21,7.17-5.03,2.06-1.83,3.77-3.74,5.13-5.73,1.36-1.99,2.37-3.95,3.03-5.86.66-1.91.99-3.67.99-5.29,0-2.38-.31-4.8-.92-7.26-.61-2.46-1.71-5.18-3.29-8.15-1.76,3.06-3.49,5.59-5.2,7.58-1.71,2-3.55,3.57-5.53,4.71s-4.06,1.95-6.25,2.42c-2.19.47-4.6.7-7.24.7-5.61,0-10.24-1.85-13.88-5.54-3.64-3.7-5.46-8.86-5.46-15.48,0-3.4.41-7.09,1.25-11.08.83-3.99,2.04-8.32,3.62-13,6.14-17.92,13.46-26.88,21.97-26.88,3.6,0,6.84,1.15,9.74,3.44s5.46,5.25,7.7,8.85c2.24,3.61,4.19,7.67,5.85,12.17,1.67,4.5,3.03,8.94,4.08,13.31,1.05,4.38,1.82,8.49,2.3,12.36.48,3.87.72,6.94.72,9.24ZM244.17,15.13l-10.39,16.69-16.18-10.96-8.16,14.14-17.5-12.61,10.53-16.44,15.39,11.72,10.13-14.91,16.18,12.36ZM227.2,83.93c-4.82-5.18-9.08-7.77-12.76-7.77-2.02,0-3.75.6-5.2,1.78-1.45,1.19-2.17,2.59-2.17,4.2,0,2.55.74,4.57,2.24,6.05,1.49,1.49,3.77,2.23,6.84,2.23,1.58,0,3.29-.59,5.13-1.78,1.84-1.19,3.82-2.76,5.92-4.71Z"/>
  <g>
    <path d="M419.77,112.77s0,2.22-.28,4.5c-.16,1.46-.38,2.83-.66,4.15-2.02,9.84-6.54,15.58-6.54,15.58-.94,1.19-5,6.18-12.34,9.69-3.67,1.77-6.99,2.62-9.39,3.06v-12c1.1-.5,3.28-1.67,5.06-4.09,1.54-2.11,2.02-4.19,2.21-5.31h-.06c-2.66-.47-5.09-1.46-7.21-2.93-1.64-1.09-3.09-2.44-4.27-3.99,0-.01-.01-.01-.01-.03-2.28-2.95-3.61-6.61-3.61-10.57,0-6.03,3.12-11.4,7.9-14.62.28-.21.59-.41.88-.57.06-.03.1-.06.16-.08,2.75-1.64,6.01-2.58,9.49-2.58s6.76.93,9.51,2.58c.06.03.09.06.15.08,2.79,1.67,5.03,3.97,6.6,6.74.22.38.42.82.61,1.23.2.5.39.96.57,1.46.12.33.37,1.12.6,2.24.58,2.63.61,5.24.64,5.45Z"/>
    <polygon points="394.15 49.77 412.46 63.06 401.3 81.48 382.85 68.19 394.15 49.77"/>
  </g>
  <path d="M387.39,127.72c1.64,1.15,3.44,2.04,5.34,2.66-.26.58-.57,1.13-.95,1.64-1.27,1.74-2.84,2.68-3.91,3.17l-1.7.76v14.42c-8.56.18-17.12.37-25.68.55-.94.04-11.11.48-17.58-1.41-1.12-.33-3.13-.92-5.45-2.33-.74-.46-2.01-1.33-3.58-2.8-2.59-2.42-4.75-5.48-6.51-9.18-1.76-3.7-3.29-7.96-4.61-12.8-8.67,17.75-21.97,26.63-39.86,26.63-15.18,0-22.76-4.67-22.76-14.02,0-3.05,2.79-12.9,8.41-29.55l3.29.51c2.81,9.08,10.27,13.63,22.36,13.63,9.48,0,15.88-.93,19.22-2.8,3.5-1.87,5.25-5.4,5.25-10.57,0-3.74-1.1-11.05-3.28-21.93-2.11-11.03-3.16-18.68-3.16-22.93,0-6.27,4.34-14.6,13.02-24.97h.53c1.58,19.29,3.55,34.19,5.92,44.73l4.87,22.04c.97,4.25,2.12,7.69,3.48,10.31,0,0,1.92,3.43,5.13,6.12.61.51,1.37,1.04,2.41,1.37.99.31,1.81.31,2.09.31,1.92,0,14.41.06,31.59.11.19.31.39.62.6.92l.72.96c1.35,1.73,2.97,3.23,4.78,4.43Z"/>
  <g>
    <path d="M449.43,159.4l-10.4,16.94,16.97,12.24,10.27-16.95-16.83-12.22Z"/>
    <path d="M473.84,107.68c0,12.99-2.9,23.23-8.69,30.71-2.02,2.63-4.45,4.69-7.3,6.18s-5.94,2.61-9.27,3.37c-2.93.67-5.95,1.13-9.11,1.37h-.12l-19.58.42-19.09.41c.69-.28,1.36-.58,2.03-.91,7.39-3.53,11.82-8.53,13.37-10.51.2-.25,4.96-6.37,7.08-16.73.04-.18.07-.37.12-.57h11.89c3.16,0,6.29-.06,9.4-.18,3.1-.13,5.94-.42,8.48-.89,2.54-.47,4.61-1.1,6.17-1.91,1.58-.81,2.37-1.88,2.37-3.24,0-1.61-1.67-3.95-4.99-7.01-3.25-3.14-4.87-5.95-4.87-8.41,0-1.19.98-4.08,2.95-8.67,1.97-4.57,4.97-10.82,9.01-18.72h.66c3.07,6.8,5.43,13.1,7.05,18.92,1.61,5.82,2.43,11.27,2.43,16.37Z"/>
    <path d="M437.89,149.3c-.41.04-.82.07-1.23.1-3.64.21-7.25.31-10.85.31-2.5,0-5,.01-7.5.01l19.58-.42Z"/>
  </g>
</svg>