<?xml version="1.0" encoding="UTF-8"?>
<svg id="Layer_1" xmlns="http://www.w3.org/2000/svg" version="1.1" viewBox="0 0 612 108.66">
  <!-- Generator: Adobe Illustrator 29.4.0, SVG Export Plug-In . SVG Version: 2.1.0 Build 152)  -->
  <defs>
    <style>
      .st0 {
        fill: none;
      }
    </style>
  </defs>
  <path d="M97.88,6.67h25.18c7.95,0,13.98.62,18.07,1.86,4.1,1.24,7.4,3.75,9.92,7.51,2.52,3.78,3.78,9.86,3.78,18.24,0,5.67-.89,9.63-2.67,11.86-1.78,2.24-5.28,3.96-10.52,5.16,5.83,1.32,9.79,3.51,11.87,6.56,2.08,3.07,3.12,7.75,3.12,14.07v9c0,6.55-.75,11.41-2.25,14.58-1.5,3.16-3.89,5.31-7.16,6.47s-9.99,1.74-20.14,1.74h-29.19V6.67ZM123.12,23.28v21.58c1.08-.04,1.92-.06,2.52-.06,2.48,0,4.06-.61,4.74-1.83s1.02-4.71,1.02-10.46c0-3.04-.28-5.17-.84-6.38s-1.29-1.99-2.19-2.31-2.65-.5-5.25-.54ZM123.12,59.96v27.15c3.56-.12,5.82-.68,6.8-1.68.98-1,1.47-3.46,1.47-7.37v-9.05c0-4.16-.44-6.67-1.32-7.55-.88-.88-3.2-1.38-6.95-1.5Z"/>
  <path d="M223.34,63.5c0,9.75-.23,16.65-.69,20.71s-1.9,7.76-4.32,11.12c-2.42,3.36-5.68,5.93-9.8,7.73-4.12,1.8-8.91,2.7-14.39,2.7s-9.86-.85-14-2.55-7.46-4.25-9.98-7.64-4.02-7.09-4.5-11.09-.72-10.99-.72-20.98v-16.6c0-9.75.23-16.65.69-20.71s1.9-7.76,4.32-11.12,5.68-5.93,9.8-7.73c4.12-1.8,8.91-2.7,14.39-2.7s9.86.85,14,2.55,7.46,4.25,9.98,7.64,4.02,7.09,4.5,11.09c.48,4,.72,10.99.72,20.98v16.6ZM198.11,31.61c0-4.52-.25-7.4-.75-8.66s-1.53-1.89-3.09-1.89c-1.32,0-2.33.51-3.03,1.53s-1.05,4.03-1.05,9.02v45.32c0,5.63.23,9.11.69,10.43s1.53,1.98,3.21,1.98,2.82-.76,3.3-2.28.72-5.14.72-10.85V31.61Z"/>
  <path d="M289.1,6.67v97.05h-22.12l-13.13-44.12v44.12h-21.1V6.67h21.1l14.15,43.7V6.67h21.1Z"/>
  <path d="M299.23,6.67h18.88c12.19,0,20.43.56,24.73,1.68s7.56,2.96,9.8,5.51,3.64,5.4,4.2,8.54c.56,3.14.84,9.3.84,18.49v33.99c0,8.71-.41,14.54-1.23,17.47s-2.25,5.24-4.29,6.89c-2.04,1.66-4.56,2.82-7.55,3.48s-7.51.99-13.55.99h-31.83V6.67ZM324.47,23.28v63.84c3.64,0,5.87-.73,6.71-2.19s1.26-5.42,1.26-11.9v-37.7c0-4.4-.14-7.21-.42-8.45s-.92-2.15-1.92-2.73-2.88-.87-5.63-.87Z"/>
  <path d="M424.75,63.5c0,9.75-.23,16.65-.69,20.71-.46,4.06-1.9,7.76-4.32,11.12s-5.68,5.93-9.8,7.73c-4.12,1.8-8.91,2.7-14.39,2.7s-9.86-.85-14-2.55-7.46-4.25-9.98-7.64-4.02-7.09-4.5-11.09c-.48-4-.72-10.99-.72-20.98v-16.6c0-9.75.23-16.65.69-20.71.46-4.06,1.9-7.76,4.32-11.12,2.42-3.36,5.68-5.93,9.8-7.73s8.91-2.7,14.39-2.7,9.86.85,14,2.55c4.14,1.7,7.46,4.25,9.98,7.64,2.52,3.4,4.02,7.09,4.5,11.09s.72,10.99.72,20.98v16.6ZM399.52,31.61c0-4.52-.25-7.4-.75-8.66s-1.53-1.89-3.09-1.89c-1.32,0-2.33.51-3.03,1.53s-1.05,4.03-1.05,9.02v45.32c0,5.63.23,9.11.69,10.43s1.53,1.98,3.21,1.98,2.82-.76,3.3-2.28.72-5.14.72-10.85V31.61Z"/>
  <path d="M459.4,6.67v97.05h-25.24V6.67h25.24Z"/>
  <path class="st0" d="M512.74,57.16s.06.04.1.06c.19.1.38.23.55.36"/>
  <g>
    <path d="M488.94,67.07c0,3.92-1.96,7.4-4.97,9.48-1.33.95-2.86,1.6-4.53,1.9h-.04c.11.72.42,2.07,1.39,3.45,1.12,1.58,2.49,2.34,3.18,2.66v7.79c-1.5-.29-3.6-.84-5.9-1.98-4.63-2.28-7.18-5.52-7.77-6.3,0,0-3.65-4.78-4.53-12.81-.17-1.48-.17-2.93-.17-2.93.02-.13.04-1.83.4-3.54.15-.72.3-1.24.38-1.45.11-.32.23-.63.36-.95.11-.27.25-.55.38-.8.99-1.81,2.4-3.29,4.15-4.38.04-.02.06-.04.1-.06,1.73-1.07,3.79-1.68,5.98-1.68s4.24.61,5.98,1.68c.04.02.06.04.1.06.19.1.38.23.55.36,3.01,2.09,4.97,5.58,4.97,9.5Z"/>
    <circle cx="477.27" cy="35.92" r="11.56"/>
  </g>
</svg>